<?xml version="1.0" encoding="UTF-8"?>
<svg id="_레이어_1" data-name="레이어 1" xmlns="http://www.w3.org/2000/svg" viewBox="0 0 66.19 42.44">
  <path d="m20.15,24.32v4.67c0,1.99-1.61,3.61-3.61,3.61h0c-1.99,0-3.61-1.61-3.61-3.61v-4.67H2.97c-1.06,0-1.82-.3-2.28-.9-.46-.6-.69-1.27-.69-2,0-.35.05-.71.16-1.06.11-.35.28-.66.51-.94.24-.27.54-.49.92-.67s.84-.26,1.38-.26h27.15c.54,0,1,.09,1.38.26.38.18.68.4.92.67.23.27.41.58.51.94.11.35.16.71.16,1.06,0,.73-.23,1.4-.69,2-.46.6-1.22.9-2.28.9h-9.97Zm8.48-14.28c.49,0,.93.09,1.29.26.37.18.66.41.88.69.22.28.39.6.49.94.11.34.16.69.16,1.04s-.05.71-.16,1.08c-.11.37-.28.69-.51.97-.24.28-.53.52-.88.71-.35.19-.78.28-1.27.28H7.28c-1.06,0-1.94-.1-2.63-.3s-1.25-.52-1.66-.96-.7-1-.87-1.7c-.17-.69-.25-1.55-.25-2.56V3.43c0-.59.1-1.1.3-1.54.2-.44.46-.8.8-1.08.33-.28.72-.49,1.17-.62.45-.13.91-.19,1.38-.19.97,0,1.8.28,2.51.85.71.57,1.06,1.43,1.06,2.58v5.62c0,.4.07.67.21.8s.41.19.81.19h18.53Z"/>
  <path d="m53.25,32.75v6.08c0,1.99-1.61,3.61-3.61,3.61h0c-1.99,0-3.61-1.61-3.61-3.61v-6.08h-9.97c-.54,0-1-.08-1.36-.25-.37-.17-.67-.39-.92-.67-.25-.28-.42-.6-.53-.96-.11-.35-.16-.71-.16-1.06s.05-.71.16-1.06.28-.67.51-.96c.24-.28.54-.51.92-.69s.84-.26,1.38-.26h17.22c1.67,0,3.09-1.14,3.51-2.75.09-.34.17-.7.25-1.07.29-1.46.44-3.24.44-5.34v-.85c0-.26-.08-.47-.23-.64-.15-.16-.37-.25-.65-.25h-19.23c-.54,0-1.01-.09-1.4-.26-.39-.18-.71-.41-.95-.71-.25-.29-.44-.62-.57-.99-.13-.37-.2-.73-.2-1.08s.06-.71.18-1.06c.12-.35.31-.68.57-.97.26-.29.58-.53.97-.71.39-.18.85-.26,1.4-.26h21.6c1.04,0,1.9.1,2.6.3s1.26.51,1.68.92c.42.41.73.94.9,1.57.18.64.27,1.39.27,2.26v2.76c0,1.84-.13,3.51-.39,5.02-.26,1.51-.62,2.88-1.09,4.1h.28c.54,0,1,.09,1.38.26.38.18.68.41.92.69.23.28.41.6.51.96s.16.71.16,1.06-.05.71-.16,1.06c-.11.35-.28.67-.53.96-.25.28-.56.51-.94.67s-.83.25-1.34.25h-9.97Z"/>
</svg>